<svg width="16" height="17" viewBox="0 0 16 17" fill="none" xmlns="http://www.w3.org/2000/svg">
<path fill-rule="evenodd" clip-rule="evenodd" d="M8.00004 2.33337C4.59428 2.33337 1.83337 5.09428 1.83337 8.50004C1.83337 11.9058 4.59428 14.6667 8.00004 14.6667C11.4058 14.6667 14.1667 11.9058 14.1667 8.50004C14.1667 5.09428 11.4058 2.33337 8.00004 2.33337ZM0.833374 8.50004C0.833374 4.542 4.042 1.33337 8.00004 1.33337C11.9581 1.33337 15.1667 4.542 15.1667 8.50004C15.1667 12.4581 11.9581 15.6667 8.00004 15.6667C4.042 15.6667 0.833374 12.4581 0.833374 8.50004ZM8.00004 5.33337C8.27618 5.33337 8.50004 5.55723 8.50004 5.83337V8.50004C8.50004 8.77618 8.27618 9.00004 8.00004 9.00004C7.7239 9.00004 7.50004 8.77618 7.50004 8.50004V5.83337C7.50004 5.55723 7.7239 5.33337 8.00004 5.33337ZM7.50004 11.1667C7.50004 10.8906 7.7239 10.6667 8.00004 10.6667H8.00671C8.28285 10.6667 8.50671 10.8906 8.50671 11.1667C8.50671 11.4428 8.28285 11.6667 8.00671 11.6667H8.00004C7.7239 11.6667 7.50004 11.4428 7.50004 11.1667Z" fill="#FF5959"/>
</svg>
